<?xml version="1.0" encoding="UTF-8"?>
<svg version="1.1" xmlns="http://www.w3.org/2000/svg" width="120" height="110">
<path d="M0 0 C1.10093994 0.01208496 2.20187988 0.02416992 3.33618164 0.03662109 C10.98613951 0.22402263 17.68218242 0.92667377 24.5625 4.5 C25.42359375 4.93570312 26.2846875 5.37140625 27.171875 5.8203125 C40.94883571 13.46026344 49.62170757 24.5979325 54.5625 39.5 C57.99438537 51.74455005 55.85138032 65.04583822 50.20703125 76.171875 C41.88587741 90.89563246 30.2036923 98.92113825 14.328125 104.25 C-0.01734396 108.13298408 -15.67922337 105.39430031 -28.625 98.5 C-40.52473568 90.9463942 -48.21169729 81.5243083 -53.4375 68.5 C-53.86482422 67.45972656 -53.86482422 67.45972656 -54.30078125 66.3984375 C-58.23960899 54.23362257 -55.58136613 39.65583201 -49.96484375 28.6015625 C-43.55717406 17.78577963 -35.01428749 9.5007097 -23.4375 4.5 C-22.65866455 4.1587207 -21.8798291 3.81744141 -21.07739258 3.46582031 C-13.93956667 0.57236778 -7.66243879 -0.13489177 0 0 Z " fill="#ECECEC" transform="translate(59.4375,2.5)"/>
<path d="M0 0 C3.67901807 1.51832492 5.73321849 3.75198592 8.4375 6.625 C11.50225717 9.48089964 13.14521764 10.8847597 17.33203125 11.44921875 C19.58254706 11.35919812 21.83194181 11.23249726 24.078125 11.06640625 C28.13381935 10.97423138 30.03336082 12.33002473 33 15 C33.86625 15.680625 34.7325 16.36125 35.625 17.0625 C36.40875 17.701875 37.1925 18.34125 38 19 C38.763125 19.474375 39.52625 19.94875 40.3125 20.4375 C42 22 42 22 42.3125 24.625 C42 27 42 27 41 28 C40.61944369 31.08966507 40.27960434 34.1757943 40.01367188 37.27734375 C39.49068468 41.98885667 38.32559255 44.63006621 35 48 C32.10238647 49.44880676 29.28916096 49.34778437 26.0625 49.625 C18.43569085 50.40269052 11.77549959 52.6254257 4.73657227 55.61181641 C-1.41507514 58.13138471 -7.12879342 59.25347803 -13.59375 57.16015625 C-14.2228125 56.79792969 -14.851875 56.43570313 -15.5 56.0625 C-16.1496875 55.70285156 -16.799375 55.34320313 -17.46875 54.97265625 C-19 54 -19 54 -20 53 C-20.3125 50.75 -20.3125 50.75 -20 48 C-19.319375 47.21625 -18.63875 46.4325 -17.9375 45.625 C-15.64088923 43.09799398 -15.64088923 43.09799398 -16.1875 39.6875 C-16.455625 38.470625 -16.72375 37.25375 -17 36 C-17.10975098 34.60459464 -17.21388108 33.20873626 -17.3125 31.8125 C-18.07627589 27.57701551 -18.98593713 26.8196072 -22 24 C-22.40234375 21.66015625 -22.40234375 21.66015625 -22 19 C-20.09375 16.7890625 -20.09375 16.7890625 -17.5 14.625 C-16.58992188 13.8515625 -15.67984375 13.078125 -14.7421875 12.28125 C-13.83726563 11.5284375 -12.93234375 10.775625 -12 10 C-10.5385095 8.71190668 -9.07982458 7.42061736 -7.625 6.125 C-5.1642147 3.95741465 -2.64178244 1.94351395 0 0 Z " fill="#898889" transform="translate(51,22)"/>
<path d="M0 0 C7.39339047 6.17222005 12.5307874 14.77962219 13.49609375 24.38671875 C13.97799777 34.62352832 11.03382994 44.05270848 4.36328125 51.89453125 C-2.19157539 58.23129654 -8.60460407 61.78757548 -17.75 61.9375 C-17.42 61.174375 -17.09 60.41125 -16.75 59.625 C-15.57563314 56.94680865 -15.57563314 56.94680865 -15.75 53.9375 C-16.74 53.9375 -17.73 53.9375 -18.75 53.9375 C-19.245 54.9275 -19.245 54.9275 -19.75 55.9375 C-19.75 55.2775 -19.75 54.6175 -19.75 53.9375 C-25.33500567 54.13648708 -25.33500567 54.13648708 -29.75 56.9375 C-29.75 55.9475 -29.75 54.9575 -29.75 53.9375 C-30.41 53.9375 -31.07 53.9375 -31.75 53.9375 C-31.75 56.2475 -31.75 58.5575 -31.75 60.9375 C-31.09 61.2675 -30.43 61.5975 -29.75 61.9375 C-37.32569811 62.76094545 -43.12311736 59.844061 -48.9921875 55.140625 C-56.47859955 48.07797212 -60.72267877 40.45796792 -61.14453125 30.15014648 C-61.36342905 18.87815334 -58.70648023 10.87259234 -50.875 2.4375 C-36.93754167 -10.33408729 -15.22789034 -10.66465048 0 0 Z M-36.1875 -2.1875 C-36.89132813 -1.55714844 -37.59515625 -0.92679688 -38.3203125 -0.27734375 C-40.08717201 1.3332822 -41.8526081 2.94547007 -43.6171875 4.55859375 C-45.07511719 5.89083984 -45.07511719 5.89083984 -46.5625 7.25 C-47.93341797 8.51263672 -47.93341797 8.51263672 -49.33203125 9.80078125 C-51.75 11.9375 -51.75 11.9375 -54.75 13.9375 C-55.33402133 16.35167872 -55.33402133 16.35167872 -54.75 18.9375 C-54.13125 19.47375 -53.5125 20.01 -52.875 20.5625 C-49.50615802 24.32767633 -49.10793221 28.98961351 -48.75 33.9375 C-49.15093381 36.97500943 -49.41955177 38.51452626 -51.3125 40.9375 C-52.9091512 42.8838092 -52.9091512 42.8838092 -53.3125 45.4375 C-52.95172444 48.25635476 -52.95172444 48.25635476 -49.9375 50.1875 C-44.26802107 53.3001551 -38.77839691 54.05955294 -32.49560547 52.30957031 C-30.20029873 51.44763034 -27.94428842 50.52062864 -25.6875 49.5625 C-18.0535457 46.49411267 -11.27093154 45.03816384 -3.0703125 44.6171875 C1.15772578 43.75168319 2.60007122 42.29027727 5.25 38.9375 C7.11093342 35.36359729 7.55867874 32.18383475 7.8125 28.1875 C8.14985694 23.03764306 8.14985694 23.03764306 9.25 21.9375 C9.6779349 19.54600906 9.6779349 19.54600906 9.25 16.9375 C6.6249056 14.13156576 3.38975422 12.13845728 0.25 9.9375 C-1.11125 8.7309375 -1.11125 8.7309375 -2.5 7.5 C-6.2425881 5.7006788 -7.8117288 6.0178954 -11.875 6.375 C-17.3668744 6.62090482 -19.89882606 5.57210193 -23.84521484 2.01196289 C-25.39099961 0.48347992 -26.89557025 -1.07456565 -28.38671875 -2.65625 C-29.16660156 -3.4503125 -29.94648437 -4.244375 -30.75 -5.0625 C-33.49550078 -5.0625 -34.16190833 -4.01516484 -36.1875 -2.1875 Z " fill="#F8F8F8" transform="translate(83.75,27.0625)"/>
<path d="M0 0 C3.36295835 1.44126786 5.62927102 3.20592655 8 6 C8 6.99 8 7.98 8 9 C8.61875 9.28875 9.2375 9.5775 9.875 9.875 C12 11 12 11 14 13 C16.18965246 12.96219724 18.37821899 12.84537144 20.5625 12.6875 C27.15156266 12.56585577 30.34220909 13.73002673 35.1328125 18.17578125 C35.74898437 18.77777344 36.36515625 19.37976563 37 20 C38.31941473 21.01829394 39.64886795 22.02418241 41 23 C40.49396008 25.16874252 40.00016187 26.99967627 39 29 C38.76198161 31.98404535 38.61771028 34.96692704 38.4765625 37.95703125 C37.94867774 41.32770526 37.09377192 43.31580424 35 46 C34.01 46 33.02 46 32 46 C32 42.37 32 38.74 32 35 C28.535 35.495 28.535 35.495 25 36 C24.67 34.35 24.34 32.7 24 31 C20.25819131 30.23463004 17.66118444 29.9539473 14 31 C13.34 30.67 12.68 30.34 12 30 C12 28.02 12 26.04 12 24 C11.05125 23.690625 10.1025 23.38125 9.125 23.0625 C6 22 6 22 4 21 C4 20.01 4 19.02 4 18 C1.99301025 19.3227887 -0.00591923 20.65783025 -2 22 C-2.7425 22.495 -3.485 22.99 -4.25 23.5 C-6.12884705 24.91410197 -6.12884705 24.91410197 -7.0625 27.125 C-7.371875 27.74375 -7.68125 28.3625 -8 29 C-8.99 29.33 -9.98 29.66 -11 30 C-11.4125 29.525625 -11.825 29.05125 -12.25 28.5625 C-14.20983441 26.81264784 -15.48508441 26.56788417 -18 26 C-20 24 -20 24 -20.0625 20.8125 C-18.62528491 15.6554341 -15.96300289 13.43156572 -12 10 C-11.30648437 9.37609375 -10.61296875 8.7521875 -9.8984375 8.109375 C-6.69612078 5.25487546 -3.4559077 2.54403849 0 0 Z " fill="#F7B11A" transform="translate(51,22)"/>
<path d="M0 0 C0.66 0 1.32 0 2 0 C2.33 1.98 2.66 3.96 3 6 C3.66 6 4.32 6 5 6 C4.34 4.02 3.68 2.04 3 0 C4.32 0.33 5.64 0.66 7 1 C7.6875 2.8125 7.6875 2.8125 8 5 C6.47698387 6.9581636 5.21773977 7.89113011 3 9 C3.928125 8.835 4.85625 8.67 5.8125 8.5 C16.95298439 6.94708399 26.84733268 8.24768764 37 13 C38.53445094 9.93109813 37.54984289 7.29905734 37 4 C38.32 3.67 39.64 3.34 41 3 C41 4.32 41 5.64 41 7 C43.475 6.505 43.475 6.505 46 6 C46 9.57575896 44.91159393 11.05295935 43 14 C43.7425 13.67 44.485 13.34 45.25 13 C48 12 48 12 52 12 C51.34 14.97 50.68 17.94 50 21 C52.31 19.68 54.62 18.36 57 17 C57.103125 17.61875 57.20625 18.2375 57.3125 18.875 C57.87525373 21.36526484 57.87525373 21.36526484 61 23 C59.35 23.33 57.7 23.66 56 24 C55.67 25.32 55.34 26.64 55 28 C57.97 28.33 60.94 28.66 64 29 C64 29.66 64 30.32 64 31 C60.53846154 34 60.53846154 34 58 34 C58 34.66 58 35.32 58 36 C57.01 36 56.02 36 55 36 C55.05800781 37.08796875 55.11601563 38.1759375 55.17578125 39.296875 C55.59286551 50.50697415 54.38974059 59.57506545 47.375 68.8125 C39.4740499 77.11966862 29.10762418 82.00171586 17.75 82.4375 C4.77227553 82.08839162 -4.85911931 77.55677871 -13.6875 68.3125 C-20.29302749 60.29799531 -22.78176967 52.67454705 -22.3515625 42.29296875 C-21.1364759 30.91165762 -15.31103522 22.54489638 -6.734375 15.21484375 C-5 14 -5 14 -3 14 C-3 13.34 -3 12.68 -3 12 C-3.969375 11.855625 -4.93875 11.71125 -5.9375 11.5625 C-9 11 -9 11 -10 10 C-10.1875 7.5625 -10.1875 7.5625 -10 5 C-8 3 -8 3 -5.5625 2.625 C-3 3 -3 3 -1.1875 5 C-0.795625 5.66 -0.40375 6.32 0 7 C-0.185625 6.030625 -0.37125 5.06125 -0.5625 4.0625 C-0.706875 3.051875 -0.85125 2.04125 -1 1 C-0.67 0.67 -0.34 0.34 0 0 Z M-12.75 22.8125 C-19.98410251 31.65234151 -21.03077316 39.89679665 -20.21435547 51.046875 C-19.20108454 60.27941195 -13.74496556 66.94241947 -7 73 C-4.10809541 74.9578733 -1.17590939 76.55640482 2 78 C2.66 78.33 3.32 78.66 4 79 C6.3329866 79.04022391 8.66706666 79.04320247 11 79 C10.34 78.67 9.68 78.34 9 78 C9 75.69 9 73.38 9 71 C9.66 71 10.32 71 11 71 C11.33 71.99 11.66 72.98 12 74 C12.495 73.01 12.495 73.01 13 72 C15.64860427 71.40644386 18.29197322 71.25790731 21 71 C21.33 71.66 21.66 72.32 22 73 C22 72.34 22 71.68 22 71 C22.99 71 23.98 71 25 71 C25.20086443 74.71599191 25.1519437 75.77208445 23 79 C32.14539593 78.85007548 38.55842461 75.29379654 45.11328125 68.95703125 C51.63270435 61.29287005 54.82707661 51.77034666 54.37890625 41.72265625 C53.01339089 31.9106541 48.47132546 23.57110738 40.86328125 17.21484375 C23.57116597 4.93231161 1.54455557 7.60939217 -12.75 22.8125 Z " fill="#656565" transform="translate(43,10)"/>
<path d="M0 0 C1.10093994 0.01208496 2.20187988 0.02416992 3.33618164 0.03662109 C10.98613951 0.22402263 17.68218242 0.92667377 24.5625 4.5 C25.42359375 4.93570312 26.2846875 5.37140625 27.171875 5.8203125 C40.94883571 13.46026344 49.62170757 24.5979325 54.5625 39.5 C57.99438537 51.74455005 55.85138032 65.04583822 50.20703125 76.171875 C41.88587741 90.89563246 30.2036923 98.92113825 14.328125 104.25 C-0.01734396 108.13298408 -15.67922337 105.39430031 -28.625 98.5 C-40.52473568 90.9463942 -48.21169729 81.5243083 -53.4375 68.5 C-53.86482422 67.45972656 -53.86482422 67.45972656 -54.30078125 66.3984375 C-58.23960899 54.23362257 -55.58136613 39.65583201 -49.96484375 28.6015625 C-43.55717406 17.78577963 -35.01428749 9.5007097 -23.4375 4.5 C-22.65866455 4.1587207 -21.8798291 3.81744141 -21.07739258 3.46582031 C-13.93956667 0.57236778 -7.66243879 -0.13489177 0 0 Z M-42.140625 20.62109375 C-51.0418276 31.7778732 -54.47027265 44.3690473 -53.4375 58.5 C-51.37012333 72.36358471 -44.74144156 83.48553426 -33.8125 92.0625 C-20.44166358 101.80762495 -6.82577808 105.37129681 9.63671875 103.0703125 C23.12076417 100.1538701 36.14974562 93.31406717 44.3671875 82.01953125 C52.21908689 69.42133448 55.46362203 57.28096879 53.06640625 42.42578125 C49.69159815 29.06001585 42.70585323 18.30734818 31.125 10.625 C6.63331563 -3.93947991 -22.43978967 0.07324799 -42.140625 20.62109375 Z " fill="#414141" transform="translate(59.4375,2.5)"/>
<path d="M0 0 C0 0.99 0 1.98 0 3 C0.94875 3.309375 1.8975 3.61875 2.875 3.9375 C6 5 6 5 8 6 C8 7.98 8 9.96 8 12 C8.60328125 11.90460937 9.2065625 11.80921875 9.828125 11.7109375 C10.62734375 11.60007812 11.4265625 11.48921875 12.25 11.375 C13.43335937 11.20097656 13.43335937 11.20097656 14.640625 11.0234375 C17.32152459 10.99680605 18.72694089 11.63407916 21 13 C21 14.65 21 16.3 21 18 C23.31 17.67 25.62 17.34 28 17 C28 20.63 28 24.26 28 28 C18.125 25.125 18.125 25.125 17 24 C15.48071962 23.92820036 13.95832518 23.91607993 12.4375 23.9375 C11.61121094 23.94652344 10.78492187 23.95554687 9.93359375 23.96484375 C9.29550781 23.97644531 8.65742187 23.98804687 8 24 C7.67 23.01 7.34 22.02 7 21 C5.37681021 20.63762737 3.7513642 20.28534843 2.125 19.9375 C1.22007813 19.74027344 0.31515625 19.54304688 -0.6171875 19.33984375 C-3.01014125 18.76797843 -3.01014125 18.76797843 -5 20 C-5.46523063 21.89533342 -5.46523063 21.89533342 -5.625 24.0625 C-5.74875 25.361875 -5.8725 26.66125 -6 28 C-5.01 28.33 -4.02 28.66 -3 29 C-8.37330889 32.39366878 -12.86946489 32.32712342 -19 32 C-17.68 31.67 -16.36 31.34 -15 31 C-15.01571045 30.43490723 -15.0314209 29.86981445 -15.04760742 29.28759766 C-15.10987045 26.73349977 -15.14896136 24.17956129 -15.1875 21.625 C-15.21263672 20.73554687 -15.23777344 19.84609375 -15.26367188 18.9296875 C-15.27333984 18.07890625 -15.28300781 17.228125 -15.29296875 16.3515625 C-15.3086792 15.56604004 -15.32438965 14.78051758 -15.34057617 13.97119141 C-15.17199097 12.99545166 -15.17199097 12.99545166 -15 12 C-14.01 11.34 -13.02 10.68 -12 10 C-11.5875 9.236875 -11.175 8.47375 -10.75 7.6875 C-8.44240686 4.14369626 -4.50037646 0 0 0 Z " fill="#182D10" transform="translate(55,40)"/>
<path d="M0 0 C0.33 0.66 0.66 1.32 1 2 C0.67 2.99 0.34 3.98 0 5 C0.763125 4.690625 1.52625 4.38125 2.3125 4.0625 C4.18789677 3.32106407 6.08684652 2.63771783 8 2 C11.1875 3.9375 11.1875 3.9375 14 6 C13.49396008 8.16874252 13.00016187 9.99967627 12 12 C11.76198161 14.98404535 11.61771028 17.96692704 11.4765625 20.95703125 C10.94867774 24.32770526 10.09377192 26.31580424 8 29 C7.01 29 6.02 29 5 29 C5 25.37 5 21.74 5 18 C2.69 18.33 0.38 18.66 -2 19 C-2.33 17.35 -2.66 15.7 -3 14 C-6.72650092 13.23776117 -9.35202386 12.91911818 -13 14 C-14 13 -14 13 -14.09765625 10.93359375 C-14.08605469 10.10988281 -14.07445312 9.28617188 -14.0625 8.4375 C-14.05347656 7.61121094 -14.04445312 6.78492188 -14.03515625 5.93359375 C-14.02355469 5.29550781 -14.01195312 4.65742187 -14 4 C-13.34 3.67 -12.68 3.34 -12 3 C-12.33 5.31 -12.66 7.62 -13 10 C-12.34 10 -11.68 10 -11 10 C-10.34 7.69 -9.68 5.38 -9 3 C-7.35 2.67 -5.7 2.34 -4 2 C-4 3.32 -4 4.64 -4 6 C-2.68 4.02 -1.36 2.04 0 0 Z " fill="#F6C01A" transform="translate(78,39)"/>
<path d="M0 0 C0.99 0 1.98 0 3 0 C3 1.32 3 2.64 3 4 C4.65 3.67 6.3 3.34 8 3 C8 6.57575896 6.91159393 8.05295935 5 11 C5.7425 10.67 6.485 10.34 7.25 10 C10 9 10 9 14 9 C13.34 11.97 12.68 14.94 12 18 C14.31 16.68 16.62 15.36 19 14 C19.103125 14.61875 19.20625 15.2375 19.3125 15.875 C19.87525373 18.36526484 19.87525373 18.36526484 23 20 C21.35 20.33 19.7 20.66 18 21 C17.67 22.32 17.34 23.64 17 25 C19.97 25.33 22.94 25.66 26 26 C26 26.66 26 27.32 26 28 C22.53846154 31 22.53846154 31 20 31 C20 31.66 20 32.32 20 33 C18.02 33.495 18.02 33.495 16 34 C15.78085938 33.3709375 15.56171875 32.741875 15.3359375 32.09375 C12.65095078 24.84646878 9.69550938 18.02207117 2.6875 14.1875 C0 12 0 12 -0.6328125 9.3515625 C-0.91508153 6.53610987 -1.10749867 3.82768245 -1 1 C-0.67 0.67 -0.34 0.34 0 0 Z " fill="#E3E3E3" transform="translate(81,13)"/>
<path d="M0 0 C0.66 0.33 1.32 0.66 2 1 C1.9071875 2.175625 1.9071875 2.175625 1.8125 3.375 C1.874375 4.24125 1.93625 5.1075 2 6 C4.79198341 7.95090292 4.79198341 7.95090292 7.125 9.0625 C9 10 9 10 10 11 C10.08669432 12.4887186 10.10703494 13.981445 10.09765625 15.47265625 C10.09443359 16.37177734 10.09121094 17.27089844 10.08789062 18.19726562 C10.07951172 19.14279297 10.07113281 20.08832031 10.0625 21.0625 C10.05798828 22.01189453 10.05347656 22.96128906 10.04882812 23.93945312 C10.0370011 26.29303065 10.02052025 28.64648477 10 31 C7.69 31.66 5.38 32.32 3 33 C3 33.66 3 34.32 3 35 C3.75925781 34.97679687 4.51851562 34.95359375 5.30078125 34.9296875 C6.29464844 34.91164062 7.28851563 34.89359375 8.3125 34.875 C9.29863281 34.85179687 10.28476562 34.82859375 11.30078125 34.8046875 C14 35 14 35 17 37 C15.02 37.495 15.02 37.495 13 38 C16.83238786 37.60693458 19.82729908 36.67791377 23.25 35 C28.0974653 32.72078292 32.69156722 32.22164646 38 32 C31.0511588 36.6325608 20.48576346 41.11143226 11.96875 40.47265625 C8.08986223 39.54141534 3.86456447 37.86456447 1 35 C0.6875 32.75 0.6875 32.75 1 30 C1.680625 29.21625 2.36125 28.4325 3.0625 27.625 C5.35911077 25.09799398 5.35911077 25.09799398 4.8125 21.6875 C4.544375 20.470625 4.27625 19.25375 4 18 C3.89024902 16.60459464 3.78611892 15.20873626 3.6875 13.8125 C2.92372411 9.57701551 2.01406287 8.8196072 -1 6 C-1.3125 3.3125 -1.3125 3.3125 -1 1 C-0.67 0.67 -0.34 0.34 0 0 Z " fill="#A08A29" transform="translate(30,40)"/>
<path d="M0 0 C0 4.95 0 9.9 0 15 C0.66 15.33 1.32 15.66 2 16 C1.34 16.33 0.68 16.66 0 17 C-0.46523063 18.89533342 -0.46523063 18.89533342 -0.625 21.0625 C-0.74875 22.361875 -0.8725 23.66125 -1 25 C-0.01 25.33 0.98 25.66 2 26 C-3.37330889 29.39366878 -7.86946489 29.32712342 -14 29 C-12.68 28.67 -11.36 28.34 -10 28 C-10.01571045 27.43490723 -10.0314209 26.86981445 -10.04760742 26.28759766 C-10.10987045 23.73349977 -10.14896136 21.17956129 -10.1875 18.625 C-10.21263672 17.73554687 -10.23777344 16.84609375 -10.26367188 15.9296875 C-10.27333984 15.07890625 -10.28300781 14.228125 -10.29296875 13.3515625 C-10.3086792 12.56604004 -10.32438965 11.78051758 -10.34057617 10.97119141 C-10.17199097 9.99545166 -10.17199097 9.99545166 -10 9 C-9.01 8.34 -8.02 7.68 -7 7 C-6.505 6.175 -6.01 5.35 -5.5 4.5 C-2.8 0 -2.8 0 0 0 Z " fill="#1D441C" transform="translate(50,43)"/>
<path d="M0 0 C1.09731445 0.00990967 2.19462891 0.01981934 3.32519531 0.0300293 C13.4439908 0.26274051 20.90643532 2.14367629 29.5625 7.5 C28.9025 8.16 28.2425 8.82 27.5625 9.5 C26.75425781 9.15066406 25.94601563 8.80132812 25.11328125 8.44140625 C23.51033203 7.75884766 23.51033203 7.75884766 21.875 7.0625 C20.81925781 6.61003906 19.76351562 6.15757813 18.67578125 5.69140625 C7.24308308 1.31628336 -9.59503466 1.55737056 -20.84375 6.1796875 C-35.94058403 13.86452169 -45.98332146 23.87896294 -51.3125 40.17578125 C-51.76198291 41.93313457 -52.11615767 43.71476481 -52.4375 45.5 C-53.0975 45.5 -53.7575 45.5 -54.4375 45.5 C-54.4375 48.47 -54.4375 51.44 -54.4375 54.5 C-54.7675 54.5 -55.0975 54.5 -55.4375 54.5 C-56.58566279 40.37121902 -51.16466443 28.42106391 -42.1484375 17.8046875 C-36.60865501 11.91317279 -30.86169582 7.706956 -23.4375 4.5 C-22.65866455 4.1587207 -21.8798291 3.81744141 -21.07739258 3.46582031 C-13.93888449 0.57209124 -7.66288909 -0.1331911 0 0 Z " fill="#4E4E4D" transform="translate(59.4375,2.5)"/>
<path d="M0 0 C0 0.99 0 1.98 0 3 C0.969375 3.28875 1.93875 3.5775 2.9375 3.875 C6 5 6 5 7 7 C7.07065617 9.04055005 7.08421976 11.08334257 7.0625 13.125 C7.05347656 14.22070312 7.04445313 15.31640625 7.03515625 16.4453125 C7.02355469 17.28835937 7.01195312 18.13140625 7 19 C2.81998005 19.08196118 -0.92212105 18.89445704 -5 18 C-5.08074203 15.37438891 -5.1403623 12.75124324 -5.1875 10.125 C-5.21263672 9.37863281 -5.23777344 8.63226563 -5.26367188 7.86328125 C-5.29296875 5.6953125 -5.29296875 5.6953125 -5 2 C-2 0 -2 0 0 0 Z " fill="#1D681F" transform="translate(55,40)"/>
<path d="M0 0 C0.66 0 1.32 0 2 0 C2.67595315 1.41225926 3.34040059 2.83002905 4 4.25 C4.37125 5.03890625 4.7425 5.8278125 5.125 6.640625 C6 9 6 9 6 13 C5.01 13.66 4.02 14.32 3 15 C2.505 16.0209375 2.505 16.0209375 2 17.0625 C1 19 1 19 -2 20 C-2.4125 19.525625 -2.825 19.05125 -3.25 18.5625 C-5.20983441 16.81264784 -6.48508441 16.56788417 -9 16 C-11 14 -11 14 -11.5625 11.75 C-10.78148212 7.93169034 -8.74579243 6.56830104 -5.82421875 4.13671875 C-4 3 -4 3 -1 3 C-0.01 4.98 0.98 6.96 2 9 C1.51421457 5.87709365 1.0013988 3.00419641 0 0 Z " fill="#F6B91A" transform="translate(42,32)"/>
<path d="M0 0 C3.7952131 1.49097658 5.61042731 3.75700849 8 7 C7.01 6.67 6.02 6.34 5 6 C4.34 8.97 3.68 11.94 3 15 C2.34 13.68 1.68 12.36 1 11 C-1.77119784 12.7058258 -1.77119784 12.7058258 -3 14 C-3.99 14 -4.98 14 -6 14 C-6.33 12.68 -6.66 11.36 -7 10 C-7 13.41099168 -6.50854594 16.63088314 -6 20 C-8.50037734 17.82575883 -9.43628586 16.26954202 -10 13 C-10.7425 13.45375 -11.485 13.9075 -12.25 14.375 C-14.47106199 15.68744572 -16.68781872 16.86367159 -19 18 C-13.49875172 11.1958245 -7.30649818 4.87099878 0 0 Z " fill="#F99F1A" transform="translate(51,22)"/>
<path d="M0 0 C2.46800047 1.15173355 4.04783565 2.04783565 6 4 C8.08336049 4.04028598 10.16911703 3.98427011 12.25 3.875 C17.8020506 3.7893957 20.74484236 4.17035813 25 8 C25.86625 8.680625 26.7325 9.36125 27.625 10.0625 C28.40875 10.701875 29.1925 11.34125 30 12 C30.763125 12.474375 31.52625 12.94875 32.3125 13.4375 C34 15 34 15 34.3125 17.625 C34 20 34 20 33 21 C32.61944369 24.08966507 32.27960434 27.1757943 32.01367188 30.27734375 C31.49068468 34.98885667 30.32559255 37.63006621 27 41 C23.828262 42.585869 20.36486178 42.37866445 16.875 42.5625 C16.12089844 42.60568359 15.36679688 42.64886719 14.58984375 42.69335938 C12.72678112 42.7994832 10.86341476 42.90025001 9 43 C9.33 42.34 9.66 41.68 10 41 C12.546875 40.65625 12.546875 40.65625 15.75 40.5 C19.90196895 40.29546951 23.31087887 40.01224789 27 38 C29.84986291 34.11619293 29.4269339 29.41526196 29.65625 24.77734375 C30 22 30 22 32 19 C32.14087999 16.97104162 32.14087999 16.97104162 31 15 C28.21829104 12.92293518 28.21829104 12.92293518 25 11 C24.25105469 10.29746094 23.50210938 9.59492187 22.73046875 8.87109375 C19.21079991 6.45918907 17.26591427 6.73845829 13.0625 7.0625 C5.37350752 7.31261413 5.37350752 7.31261413 2.125 4.625 C0 2 0 2 0 0 Z " fill="#605535" transform="translate(59,29)"/>
<path d="M0 0 C1.33998047 0.31324219 1.33998047 0.31324219 2.70703125 0.6328125 C3.60808594 0.83648437 4.50914063 1.04015625 5.4375 1.25 C6.46810547 1.50136719 6.46810547 1.50136719 7.51953125 1.7578125 C7.84953125 3.4078125 8.17953125 5.0578125 8.51953125 6.7578125 C7.85953125 6.7578125 7.19953125 6.7578125 6.51953125 6.7578125 C6.18953125 7.7478125 5.85953125 8.7378125 5.51953125 9.7578125 C2.45703125 10.9453125 2.45703125 10.9453125 -0.48046875 11.7578125 C-0.48046875 12.4178125 -0.48046875 13.0778125 -0.48046875 13.7578125 C-2.13046875 13.4278125 -3.78046875 13.0978125 -5.48046875 12.7578125 C-5.56133022 10.96688059 -5.61959577 9.17491622 -5.66796875 7.3828125 C-5.70277344 6.38507813 -5.73757812 5.38734375 -5.7734375 4.359375 C-5.62841797 3.07160156 -5.62841797 3.07160156 -5.48046875 1.7578125 C-2.48046875 -0.2421875 -2.48046875 -0.2421875 0 0 Z " fill="#727273" transform="translate(54.48046875,58.2421875)"/>
<path d="M0 0 C6.69895965 0.78671056 10.54523924 5.25985612 15 10 C21.3197865 18.24684262 27.17382381 28.66466643 27.09765625 39.328125 C27.09443359 40.12734375 27.09121094 40.9265625 27.08789062 41.75 C27.07951172 42.575 27.07113281 43.4 27.0625 44.25 C27.05798828 45.09046875 27.05347656 45.9309375 27.04882812 46.796875 C27.03707961 48.86461401 27.01914522 50.93231624 27 53 C26.34 53 25.68 53 25 53 C24.96261719 51.97261719 24.92523438 50.94523437 24.88671875 49.88671875 C24.14763201 33.11107422 20.50806761 18.98213424 8 7 C5.87216171 5.27452977 3.72069656 3.65278993 1.46875 2.09375 C0.9840625 1.7328125 0.499375 1.371875 0 1 C0 0.67 0 0.34 0 0 Z " fill="#3F3F3D" transform="translate(88,11)"/>
<path d="M0 0 C1 2 1 2 1 4 C1.66 3.34 2.32 2.68 3 2 C5.125 1.375 5.125 1.375 7 1 C7.08150744 3.06183633 7.1394194 5.12461349 7.1875 7.1875 C7.22230469 8.33605469 7.25710937 9.48460937 7.29296875 10.66796875 C6.97295182 14.30762794 6.28684983 16.16942363 4 19 C3.01 19 2.02 19 1 19 C1 15.37 1 11.74 1 8 C-0.98 8.33 -2.96 8.66 -5 9 C-5.3125 6.75 -5.3125 6.75 -5 4 C-2.5 1.6875 -2.5 1.6875 0 0 Z " fill="#FAD41A" transform="translate(82,49)"/>
<path d="M0 0 C4.82360189 -0.19294408 8.49646738 0.24252386 13 2 C13 2.66 13 3.32 13 4 C11.4609375 5.2265625 11.4609375 5.2265625 9.375 6.625 C4.92908402 9.83550216 2.07647553 13.51687636 -1 18 C-1.99477386 19.33723699 -2.99340003 20.67164226 -4 22 C-4.33 21.34 -4.66 20.68 -5 20 C-7.01669827 18.86649466 -7.01669827 18.86649466 -9 18 C-8.34 17.566875 -7.68 17.13375 -7 16.6875 C-6.34 16.130625 -5.68 15.57375 -5 15 C-5 14.01 -5 13.02 -5 12 C-3.35 11.67 -1.7 11.34 0 11 C0.6814823 9.10820797 0.6814823 9.10820797 1 7 C0.34 6.34 -0.32 5.68 -1 5 C-0.34 5 0.32 5 1 5 C1 4.34 1 3.68 1 3 C2.65 3 4.3 3 6 3 C5.01 4.485 5.01 4.485 4 6 C4.66 5.67 5.32 5.34 6 5 C6 4.01 6 3.02 6 2 C3.03 1.505 3.03 1.505 0 1 C0 0.67 0 0.34 0 0 Z " fill="#E9E9E9" transform="translate(27,20)"/>
<path d="M0 0 C1.91796875 1.0703125 1.91796875 1.0703125 3.91796875 3.0703125 C-1.73337241 3.9302992 -7.39151762 4.5321754 -13.08203125 5.0703125 C-13.08203125 4.7403125 -13.08203125 4.4103125 -13.08203125 4.0703125 C-15.06203125 3.4103125 -17.04203125 2.7503125 -19.08203125 2.0703125 C-18.08203125 -0.9296875 -18.08203125 -0.9296875 -16.45703125 -2.1171875 C-10.30274245 -4.22260209 -5.62681337 -2.61487024 0 0 Z " fill="#BBBBBB" transform="translate(79.08203125,65.9296875)"/>
<path d="M0 0 C0.33 0 0.66 0 1 0 C1.08636719 1.23234375 1.17273438 2.4646875 1.26171875 3.734375 C2.29345562 16.54424367 4.29579498 27.2282079 12.765625 37.37890625 C14 39 14 39 15 42 C16.32467746 42.6837045 17.65863633 43.34964186 19 44 C19.66 44.99 20.32 45.98 21 47 C15.1003134 46.08108719 11.59150428 41.43798678 8 37 C5.17146593 32.56629233 3.03764511 27.83724249 1 23 C0.69964844 22.29101562 0.39929688 21.58203125 0.08984375 20.8515625 C-2.07884965 14.27367127 -0.65317499 6.7788972 0 0 Z " fill="#3A3A39" transform="translate(5,48)"/>
<path d="M0 0 C0.99 1.32 1.98 2.64 3 4 C2.34 4 1.68 4 1 4 C1 4.66 1 5.32 1 6 C1.75925781 5.97679688 2.51851562 5.95359375 3.30078125 5.9296875 C4.29464844 5.91164063 5.28851563 5.89359375 6.3125 5.875 C7.29863281 5.85179688 8.28476562 5.82859375 9.30078125 5.8046875 C12 6 12 6 15 8 C13.68 8.33 12.36 8.66 11 9 C14.83238786 8.60693458 17.82729908 7.67791377 21.25 6 C26.0974653 3.72078292 30.69156722 3.22164646 36 3 C29.0511588 7.6325608 18.48576346 12.11143226 9.96875 11.47265625 C6.08986223 10.54141534 1.86456447 8.86456447 -1 6 C-1.125 3.5 -1.125 3.5 -1 1 C-0.67 0.67 -0.34 0.34 0 0 Z " fill="#575655" transform="translate(32,69)"/>
<path d="M0 0 C0.66 0 1.32 0 2 0 C2.08789022 6.23043997 2.14167597 12.46622827 1.75 18.6875 C1.70359375 19.47511719 1.6571875 20.26273438 1.609375 21.07421875 C1 23 1 23 -1.046875 24.26953125 C-1.69140625 24.51058594 -2.3359375 24.75164062 -3 25 C-3.02694851 23.04174127 -3.04637218 21.08337774 -3.0625 19.125 C-3.07410156 18.03445312 -3.08570313 16.94390625 -3.09765625 15.8203125 C-3 13 -3 13 -2 11 C-1.96984727 8.69116277 -2.06653176 6.40065744 -2.16015625 4.09375 C-2 2 -2 2 0 0 Z " fill="#1E7B26" transform="translate(47,46)"/>
<path d="M0 0 C3.7952131 1.49097658 5.61042731 3.75700849 8 7 C5.53199953 5.84826645 3.95216435 4.95216435 2 3 C-0.64736593 3.20985218 -1.77786261 3.78754291 -3.703125 5.62890625 C-4.21359375 6.26699219 -4.7240625 6.90507812 -5.25 7.5625 C-5.77078125 8.20316406 -6.2915625 8.84382813 -6.828125 9.50390625 C-7.21484375 9.99761719 -7.6015625 10.49132813 -8 11 C-7.67257813 11.60328125 -7.34515625 12.2065625 -7.0078125 12.828125 C-5.82576973 15.37547299 -5.84578447 17.22412038 -6 20 C-8.50037734 17.82575883 -9.43628586 16.26954202 -10 13 C-10.7425 13.45375 -11.485 13.9075 -12.25 14.375 C-14.47106199 15.68744572 -16.68781872 16.86367159 -19 18 C-13.49875172 11.1958245 -7.30649818 4.87099878 0 0 Z " fill="#9E752E" transform="translate(51,22)"/>
<path d="M0 0 C0.66 0 1.32 0 2 0 C0.57236352 3.7544094 -1.13586548 7.2566634 -3 10.8125 C-5.39674645 15.54168994 -7.00105271 19.80547409 -8 25 C-8.66 25 -9.32 25 -10 25 C-10 27.97 -10 30.94 -10 34 C-10.33 34 -10.66 34 -11 34 C-12.01875884 21.4636065 -7.93386372 9.75122659 0 0 Z " fill="#51514D" transform="translate(15,23)"/>
<path d="M0 0 C0 0.99 0 1.98 0 3 C-0.88042969 2.65066406 -1.76085937 2.30132812 -2.66796875 1.94140625 C-3.82941406 1.48636719 -4.99085937 1.03132812 -6.1875 0.5625 C-7.33605469 0.11003906 -8.48460938 -0.34242187 -9.66796875 -0.80859375 C-15.38743884 -2.85365633 -20.7963455 -3.25488439 -26.8125 -3.5625 C-27.60076172 -3.60568359 -28.38902344 -3.64886719 -29.20117188 -3.69335938 C-31.13394215 -3.79878321 -33.06695026 -3.89983094 -35 -4 C-35 -4.33 -35 -4.66 -35 -5 C-21.30365533 -6.26637611 -12.56029697 -5.75945936 0 0 Z " fill="#4E4E4D" transform="translate(88,9)"/>
<path d="M0 0 C3.96 0 7.92 0 12 0 C12.33 1.65 12.66 3.3 13 5 C11.02 5.99 11.02 5.99 9 7 C8.67 6.34 8.34 5.68 8 5 C7.01 5 6.02 5 5 5 C4.34 4.67 3.68 4.34 3 4 C2.67 4.99 2.34 5.98 2 7 C1.34 7 0.68 7 0 7 C0 4.69 0 2.38 0 0 Z " fill="#5C5C5C" transform="translate(56,81)"/>
<path d="M0 0 C0.99 0.66 1.98 1.32 3 2 C0.7941576 3.13011652 -1.41445027 4.25415788 -3.625 5.375 C-4.24246094 5.69210938 -4.85992187 6.00921875 -5.49609375 6.3359375 C-11.9642641 9.60406568 -16.64619969 11.47076006 -24 10 C-24 9.67 -24 9.34 -24 9 C-22.90945312 8.77957031 -22.90945312 8.77957031 -21.796875 8.5546875 C-13.85504438 6.78304836 -7.12347571 3.90275531 0 0 Z " fill="#505050" transform="translate(90,96)"/>
<path d="M0 0 C0.33 0 0.66 0 1 0 C1 5.61 1 11.22 1 17 C-1.31 17.33 -3.62 17.66 -6 18 C-3.125 13.125 -3.125 13.125 -2 12 C-1.92794489 10.31391034 -1.91613932 8.62499341 -1.9375 6.9375 C-1.95103516 5.55884766 -1.95103516 5.55884766 -1.96484375 4.15234375 C-1.97644531 3.44207031 -1.98804688 2.73179688 -2 2 C-1.34 2 -0.68 2 0 2 C0 1.34 0 0.68 0 0 Z " fill="#F4E120" transform="translate(38,54)"/>
<path d="M0 0 C0.99 0 1.98 0 3 0 C3 1.32 3 2.64 3 4 C4.65 3.67 6.3 3.34 8 3 C8 6.57575896 6.91159393 8.05295935 5 11 C4.01 10.67 3.02 10.34 2 10 C2.33 9.01 2.66 8.02 3 7 C2.01 7.33 1.02 7.66 0 8 C-0.38063221 5.6739143 -0.71269945 3.33944736 -1 1 C-0.67 0.67 -0.34 0.34 0 0 Z " fill="#515151" transform="translate(81,13)"/>
<path d="M0 0 C0.33 0 0.66 0 1 0 C1.33506294 5.47269471 0.6071996 9.15805789 -2 14 C-5.49756497 17.64329685 -9.47554275 17.53987986 -14.25 17.6875 C-14.99507813 17.72166016 -15.74015625 17.75582031 -16.5078125 17.79101562 C-18.33802492 17.87314054 -20.16898669 17.93825653 -22 18 C-21.67 17.34 -21.34 16.68 -21 16 C-18.453125 15.65625 -18.453125 15.65625 -15.25 15.5 C-11.09019359 15.29508343 -7.71830004 14.96389086 -4 13 C-1.71392958 8.75444065 -0.58185428 4.77120506 0 0 Z " fill="#2E2D26" transform="translate(90,54)"/>
<path d="M0 0 C-3.03557999 1.18295033 -6.07931093 2.34335269 -9.125 3.5 C-9.9809375 3.83386719 -10.836875 4.16773437 -11.71875 4.51171875 C-16.3002556 6.23859394 -20.0178578 7.45737699 -25 7 C-7.19526956 -1.9859555 -7.19526956 -1.9859555 0 0 Z " fill="#29292A" transform="translate(68,73)"/>
<path d="M0 0 C0.66 0 1.32 0 2 0 C2 1.98 2 3.96 2 6 C2.66 6 3.32 6 4 6 C4 9.96 4 13.92 4 18 C3.34 18 2.68 18 2 18 C1.67 17.01 1.34 16.02 1 15 C-2.00847418 13.77479736 -2.00847418 13.77479736 -5 13 C-3 12 -3 12 1 13 C0.67 8.71 0.34 4.42 0 0 Z " fill="#154A17" transform="translate(61,46)"/>
<path d="M0 0 C2.375 0.6875 2.375 0.6875 3.375 1.6875 C3.41563832 3.35367115 3.417721 5.02138095 3.375 6.6875 C2.385 7.1825 2.385 7.1825 1.375 7.6875 C1.045 6.0375 0.715 4.3875 0.375 2.6875 C-0.615 3.1825 -0.615 3.1825 -1.625 3.6875 C-2.28272428 6.71684491 -2.28272428 6.71684491 -2.625 9.6875 C-3.615 9.6875 -4.605 9.6875 -5.625 9.6875 C-5.91796875 3.6328125 -5.91796875 3.6328125 -5.625 1.6875 C-2.625 -0.3125 -2.625 -0.3125 0 0 Z " fill="#DADADA" transform="translate(54.625,58.3125)"/>
<path d="M0 0 C0.91330078 0.01353516 1.82660156 0.02707031 2.76757812 0.04101562 C4.99153259 0.07594685 7.21417952 0.12498414 9.4375 0.1875 C9.4375 0.5175 9.4375 0.8475 9.4375 1.1875 C8.14779297 1.24357422 8.14779297 1.24357422 6.83203125 1.30078125 C-0.74448989 1.72215811 -7.69807641 2.73600713 -15.015625 4.76171875 C-15.85609375 4.90222656 -16.6965625 5.04273438 -17.5625 5.1875 C-18.2225 4.5275 -18.8825 3.8675 -19.5625 3.1875 C-12.90040346 0.47806413 -7.15251924 -0.20465756 0 0 Z " fill="#4A4B48" transform="translate(57.5625,2.8125)"/>
<path d="M0 0 C-2 2 -2 2 -5.8125 2.1875 C-8.97270751 2.11266813 -11.92318996 1.76920251 -15 1 C-15.33 0.01 -15.66 -0.98 -16 -2 C-10.57373151 -3.80875616 -5.06935297 -2.37625921 0 0 Z " fill="#858486" transform="translate(83,68)"/>
<path d="M0 0 C1.32 0 2.64 0 4 0 C4 3.3 4 6.6 4 10 C2.02 10.99 2.02 10.99 0 12 C0 8.04 0 4.08 0 0 Z " fill="#E4E4E4" transform="translate(44,59)"/>
<path d="M0 0 C0.99 0.33 1.98 0.66 3 1 C3 3.31 3 5.62 3 8 C-0.3 8 -3.6 8 -7 8 C-7 6.68 -7 5.36 -7 4 C-4.36 4 -1.72 4 1 4 C0.67 2.68 0.34 1.36 0 0 Z " fill="#727272" transform="translate(16,50)"/>
<path d="M0 0 C0.66 0 1.32 0 2 0 C2 1.65 2 3.3 2 5 C2.66 4.67 3.32 4.34 4 4 C5.99960012 3.960008 8.00047242 3.95653201 10 4 C9.67 4.99 9.34 5.98 9 7 C9.66 7.33 10.32 7.66 11 8 C4.25 8.125 4.25 8.125 2 7 C2 8.65 2 10.3 2 12 C1.67 12 1.34 12 1 12 C0.67 8.04 0.34 4.08 0 0 Z " fill="#FCFCFC" transform="translate(98,46)"/>
<path d="M0 0 C0 3.3 0 6.6 0 10 C-0.33 9.34 -0.66 8.68 -1 8 C-3.52733235 7.34444881 -3.52733235 7.34444881 -6 7 C-6 5.35 -6 3.7 -6 2 C-2.25 0 -2.25 0 0 0 Z " fill="#196D20" transform="translate(82,58)"/>
<path d="M0 0 C0.66 0 1.32 0 2 0 C2.33 1.98 2.66 3.96 3 6 C3.66 6 4.32 6 5 6 C4.34 4.02 3.68 2.04 3 0 C4.32 0.33 5.64 0.66 7 1 C7.6875 2.8125 7.6875 2.8125 8 5 C6.8125 6.75 6.8125 6.75 5 8 C3.68 8 2.36 8 1 8 C0.34 5.69 -0.32 3.38 -1 1 C-0.67 0.67 -0.34 0.34 0 0 Z " fill="#3B3B3B" transform="translate(43,10)"/>
<path d="M0 0 C2.25 0.3125 2.25 0.3125 4 1 C4 1.66 4 2.32 4 3 C2.23585377 3.72482748 0.46337096 4.42939296 -1.3125 5.125 C-2.79169922 5.71667969 -2.79169922 5.71667969 -4.30078125 6.3203125 C-5.19152344 6.54460937 -6.08226562 6.76890625 -7 7 C-7.99 6.34 -8.98 5.68 -10 5 C-9.67 4.01 -9.34 3.02 -9 2 C-8.2575 2.226875 -7.515 2.45375 -6.75 2.6875 C-3.2641501 3.08361931 -2.67412272 2.07028856 0 0 Z " fill="#C1C1C2" transform="translate(56,68)"/>
<path d="M0 0 C2.31 0.66 4.62 1.32 7 2 C7.625 3.875 7.625 3.875 8 6 C7.34 6.66 6.68 7.32 6 8 C3.27130593 7.96712417 0.7033382 7.43602229 -2 7 C-1.67 6.01 -1.34 5.02 -1 4 C1.31 4.33 3.62 4.66 6 5 C6 4.34 6 3.68 6 3 C3.69 2.67 1.38 2.34 -1 2 C-0.67 1.34 -0.34 0.68 0 0 Z " fill="#5A5A5A" transform="translate(12,41)"/>
<path d="M0 0 C0.66 0 1.32 0 2 0 C2.66 2.31 3.32 4.62 4 7 C2.02 6.34 0.04 5.68 -2 5 C-1.34 6.65 -0.68 8.3 0 10 C-0.66 10 -1.32 10 -2 10 C-5 4.25 -5 4.25 -5 2 C-3.35 2 -1.7 2 0 2 C0 1.34 0 0.68 0 0 Z " fill="#505050" transform="translate(80,89)"/>
<path d="M0 0 C0.66 0.33 1.32 0.66 2 1 C1.57664615 7.49142565 -0.91099799 12.33492989 -4 18 C-4.66 17.34 -5.32 16.68 -6 16 C-5.47599609 14.89591797 -5.47599609 14.89591797 -4.94140625 13.76953125 C-4.48636719 12.79371094 -4.03132813 11.81789063 -3.5625 10.8125 C-3.11003906 9.84957031 -2.65757813 8.88664062 -2.19140625 7.89453125 C-1.09618578 5.23368414 -0.45045204 2.83215245 0 0 Z " fill="#404040" transform="translate(112,63)"/>
<path d="M0 0 C0 4.29 0 8.58 0 13 C-0.99 13.33 -1.98 13.66 -3 14 C-3 9.71 -3 5.42 -3 1 C-1 0 -1 0 0 0 Z " fill="#1A8123" transform="translate(53,42)"/>
<path d="M0 0 C0.66 0.33 1.32 0.66 2 1 C2 1.99 2 2.98 2 4 C2.99 4.66 3.98 5.32 5 6 C3.824375 6.12375 3.824375 6.12375 2.625 6.25 C-0.14749104 6.72806339 -0.14749104 6.72806339 -1.3125 9.0625 C-1.539375 9.701875 -1.76625 10.34125 -2 11 C-2.33 9.35 -2.66 7.7 -3 6 C-3.99 6 -4.98 6 -6 6 C-6 5.34 -6 4.68 -6 4 C-4.03852126 2.61061923 -2.03833424 1.2739589 0 0 Z " fill="#3B3B3B" transform="translate(99,27)"/>
<path d="M0 0 C3.875 0.875 3.875 0.875 5 2 C5.66 1.34 6.32 0.68 7 0 C7 2.64 7 5.28 7 8 C6.01 7.34 5.02 6.68 4 6 C4 5.34 4 4.68 4 4 C3.34 4 2.68 4 2 4 C2 5.32 2 6.64 2 8 C1.34 8 0.68 8 0 8 C0 5.36 0 2.72 0 0 Z " fill="#4D4D4D" transform="translate(56,8)"/>
<path d="M0 0 C0.33 0 0.66 0 1 0 C1.08096803 1.45742463 1.13917774 2.91612807 1.1875 4.375 C1.22230469 5.18710937 1.25710937 5.99921875 1.29296875 6.8359375 C1.19628906 7.55007812 1.09960938 8.26421875 1 9 C-2 11 -2 11 -4 12 C-4 9.03 -4 6.06 -4 3 C-3.34 3 -2.68 3 -2 3 C-1.34 2.01 -0.68 1.02 0 0 Z " fill="#FAE41B" transform="translate(88,54)"/>
<path d="M0 0 C1.32 0.33 2.64 0.66 4 1 C4 4.3 4 7.6 4 11 C2.68 10.34 1.36 9.68 0 9 C0 6.03 0 3.06 0 0 Z " fill="#1A8023" transform="translate(71,53)"/>
<path d="M0 0 C-0.33 0.66 -0.66 1.32 -1 2 C-1.99 2.33 -2.98 2.66 -4 3 C-3.01 3.33 -2.02 3.66 -1 4 C-1.33 4.99 -1.66 5.98 -2 7 C-4.64 6.01 -7.28 5.02 -10 4 C-9 1 -9 1 -6.6875 -0.25 C-3.90126985 -1.0275526 -2.66561622 -0.98726527 0 0 Z " fill="#353535" transform="translate(23,35)"/>
<path d="M0 0 C1.5625 1.25 1.5625 1.25 3 3 C2.6875 5.1875 2.6875 5.1875 2 7 C-0.64 6.67 -3.28 6.34 -6 6 C-6 5.34 -6 4.68 -6 4 C-4.03852126 2.61061923 -2.03833424 1.2739589 0 0 Z " fill="#5A5A5A" transform="translate(23,74)"/>
<path d="M0 0 C0.99 0.33 1.98 0.66 3 1 C3 1.33 3 1.66 3 2 C4.65 2.33 6.3 2.66 8 3 C7.67 4.32 7.34 5.64 7 7 C5.68 7 4.36 7 3 7 C3.99 6.67 4.98 6.34 6 6 C6 5.34 6 4.68 6 4 C4.02 4.33 2.04 4.66 0 5 C-0.5625 3.0625 -0.5625 3.0625 -1 1 C-0.67 0.67 -0.34 0.34 0 0 Z " fill="#545454" transform="translate(95,74)"/>
<path d="M0 0 C0.99 0 1.98 0 3 0 C3 2.64 3 5.28 3 8 C1.68 8.33 0.36 8.66 -1 9 C-1.09765625 2.84765625 -1.09765625 2.84765625 -1 1 C-0.67 0.67 -0.34 0.34 0 0 Z " fill="#197020" transform="translate(67,53)"/>
<path d="M0 0 C1.67542976 0.28604898 3.34385343 0.61781233 5 1 C4.01 1.495 4.01 1.495 3 2 C2.53193355 4.33744294 2.17330206 6.69739079 1.875 9.0625 C1.70742187 10.35285156 1.53984375 11.64320312 1.3671875 12.97265625 C1.24601562 13.97167969 1.12484375 14.97070312 1 16 C0.67 16 0.34 16 0 16 C0 14.02 0 12.04 0 10 C-0.66 9.67 -1.32 9.34 -2 9 C-1.34 9 -0.68 9 0 9 C-0.185625 7.700625 -0.37125 6.40125 -0.5625 5.0625 C-0.87890625 2.84765625 -0.87890625 2.84765625 -1 1 C-0.67 0.67 -0.34 0.34 0 0 Z " fill="#EBAA19" transform="translate(63,36)"/>
<path d="M0 0 C2.0625 0.4375 2.0625 0.4375 4 1 C3.01 1.33 2.02 1.66 1 2 C1 2.99 1 3.98 1 5 C2.32 5.33 3.64 5.66 5 6 C5.33 5.34 5.66 4.68 6 4 C5.34 3.67 4.68 3.34 4 3 C5.32 3 6.64 3 8 3 C7.34 4.65 6.68 6.3 6 8 C4.00045254 8.04254356 1.99958364 8.04080783 0 8 C-1 7 -1 7 -1.125 4 C-1 1 -1 1 0 0 Z " fill="#3C3C3C" transform="translate(21,24)"/>
<path d="M0 0 C-3.27278139 2.18185426 -3.9351248 2.21432326 -7.66796875 1.9765625 C-8.56064453 1.925 -9.45332031 1.8734375 -10.37304688 1.8203125 C-11.30181641 1.75585938 -12.23058594 1.69140625 -13.1875 1.625 C-14.12787109 1.56828125 -15.06824219 1.5115625 -16.03710938 1.453125 C-18.35884909 1.31169923 -20.6794993 1.1602967 -23 1 C-23 0.67 -23 0.34 -23 0 C-15.15597666 -0.72526532 -7.80255144 -1.21074074 0 0 Z " fill="#7D7D7B" transform="translate(76,4)"/>
<path d="M0 0 C2.97 0 5.94 0 9 0 C9 0.66 9 1.32 9 2 C5.53846154 5 5.53846154 5 3 5 C2.67 5.66 2.34 6.32 2 7 C1.67 6.01 1.34 5.02 1 4 C1.66 4 2.32 4 3 4 C2.01 2.68 1.02 1.36 0 0 Z " fill="#545454" transform="translate(98,39)"/>
<path d="M0 0 C-1.75 5.75 -1.75 5.75 -4 8 C-4.33 6.68 -4.66 5.36 -5 4 C-6.32 3.67 -7.64 3.34 -9 3 C-4.5 0 -4.5 0 0 0 Z " fill="#565656" transform="translate(95,22)"/>
<path d="M0 0 C0.33 0 0.66 0 1 0 C1.22224251 2.58281836 1.42823488 5.16522187 1.625 7.75 C1.68945312 8.47960938 1.75390625 9.20921875 1.8203125 9.9609375 C2.10381649 13.85911736 2.27081383 16.70645322 0 20 C-0.83854735 13.09811029 -1.01593448 6.88577812 0 0 Z " fill="#40403C" transform="translate(5,48)"/>
<path d="M0 0 C3 1 3 1 4.16796875 2.671875 C7.55343511 9.57251908 7.55343511 9.57251908 7 14 C3.94998169 10.33997803 0 4.92148529 0 0 Z " fill="#333332" transform="translate(105,27)"/>
<path d="M0 0 C0.66 0.66 1.32 1.32 2 2 C1.01 3.98 0.02 5.96 -1 8 C0.32 7.67 1.64 7.34 3 7 C2.67 7.99 2.34 8.98 2 10 C-0.475 9.01 -0.475 9.01 -3 8 C-3 3.73173127 -2.62386487 3.06117568 0 0 Z " fill="#474747" transform="translate(37,88)"/>
<path d="M0 0 C0 0.99 0 1.98 0 3 C-3.3 3 -6.6 3 -10 3 C-10 2.34 -10 1.68 -10 1 C-6.78548731 -0.60725635 -3.56387464 -0.05748185 0 0 Z " fill="#A0A0A2" transform="translate(43,72)"/>
<path d="M0 0 C2.64 0.33 5.28 0.66 8 1 C7.67 1.99 7.34 2.98 7 4 C6.01 4.33 5.02 4.66 4 5 C4 5.66 4 6.32 4 7 C3.34 7 2.68 7 2 7 C1.34 4.69 0.68 2.38 0 0 Z " fill="#474747" transform="translate(88,85)"/>
<path d="M0 0 C2.97 0 5.94 0 9 0 C9 0.99 9 1.98 9 3 C6.03 3 3.06 3 0 3 C0 2.01 0 1.02 0 0 Z " fill="#585858" transform="translate(101,54)"/>
<path d="M0 0 C1.65 0 3.3 0 5 0 C4.67 1.32 4.34 2.64 4 4 C3.34 4 2.68 4 2 4 C2 5.32 2 6.64 2 8 C1.01 8 0.02 8 -1 8 C-0.67 5.36 -0.34 2.72 0 0 Z " fill="#3D3D3D" transform="translate(56,95)"/>
<path d="M0 0 C0.99 0 1.98 0 3 0 C3 0.99 3 1.98 3 3 C3.66 3 4.32 3 5 3 C4.67 3.99 4.34 4.98 4 6 C1.525 5.01 1.525 5.01 -1 4 C-0.67 2.68 -0.34 1.36 0 0 Z " fill="#E6E6E6" transform="translate(22,25)"/>
<path d="M0 0 C0.99 0.33 1.98 0.66 3 1 C1.90716423 2.03295436 0.80029421 3.05107835 -0.3125 4.0625 C-0.92738281 4.63097656 -1.54226562 5.19945313 -2.17578125 5.78515625 C-2.77777344 6.18605469 -3.37976563 6.58695312 -4 7 C-4.99 6.67 -5.98 6.34 -7 6 C-5.90716423 4.96704564 -4.80029421 3.94892165 -3.6875 2.9375 C-3.07261719 2.36902344 -2.45773438 1.80054687 -1.82421875 1.21484375 C-0.92123047 0.61349609 -0.92123047 0.61349609 0 0 Z " fill="#424242" transform="translate(98,90)"/>
<path d="M0 0 C0.99 0 1.98 0 3 0 C3.33 1.65 3.66 3.3 4 5 C2.02 5.99 2.02 5.99 0 7 C-1.125 2.25 -1.125 2.25 0 0 Z " fill="#6C6C6C" transform="translate(65,81)"/>
<path d="M0 0 C0.33 0 0.66 0 1 0 C1.33 1.98 1.66 3.96 2 6 C2.99 6.33 3.98 6.66 5 7 C4.34 8.32 3.68 9.64 3 11 C2.01 11 1.02 11 0 11 C0 7.37 0 3.74 0 0 Z " fill="#D7C016" transform="translate(83,57)"/>
<path d="M0 0 C2 3.75 2 3.75 2 6 C3.32 6.33 4.64 6.66 6 7 C4.1875 7.625 4.1875 7.625 2 8 C1.01 7.34 0.02 6.68 -1 6 C-1.25 3.4375 -1.25 3.4375 -1 1 C-0.67 0.67 -0.34 0.34 0 0 Z " fill="#464646" transform="translate(34,14)"/>
<path d="M0 0 C1.9375 0.75 1.9375 0.75 4 2 C4.75 4.125 4.75 4.125 5 6 C3.68 6 2.36 6 1 6 C0.67 4.02 0.34 2.04 0 0 Z " fill="#ECECEC" transform="translate(35,14)"/>
<path d="M0 0 C0.598125 0.350625 1.19625 0.70125 1.8125 1.0625 C1.4825 2.0525 1.1525 3.0425 0.8125 4.0625 C-0.5075 4.0625 -1.8275 4.0625 -3.1875 4.0625 C-3.8475 2.7425 -4.5075 1.4225 -5.1875 0.0625 C-2.1875 -0.9375 -2.1875 -0.9375 0 0 Z " fill="#C2AF50" transform="translate(106.1875,64.9375)"/>
<path d="M0 0 C0.598125 0.350625 1.19625 0.70125 1.8125 1.0625 C1.1525 1.0625 0.4925 1.0625 -0.1875 1.0625 C0.1425 2.3825 0.4725 3.7025 0.8125 5.0625 C-0.1775 5.3925 -1.1675 5.7225 -2.1875 6.0625 C-2.373125 5.134375 -2.373125 5.134375 -2.5625 4.1875 C-3.05947356 1.87129168 -3.05947356 1.87129168 -5.1875 0.0625 C-2.1875 -0.9375 -2.1875 -0.9375 0 0 Z " fill="#676867" transform="translate(55.1875,60.9375)"/>
<path d="M0 0 C2.0245738 1.93254772 3.42105792 3.63158688 5 6 C4.625 8.1875 4.625 8.1875 4 10 C0 4.5 0 4.5 0 0 Z " fill="#31312F" transform="translate(10,76)"/>
<path d="M0 0 C1.32 0.33 2.64 0.66 4 1 C3.67 2.65 3.34 4.3 3 6 C1.0625 5.6875 1.0625 5.6875 -1 5 C-1.33 4.01 -1.66 3.02 -2 2 C-1.34 2 -0.68 2 0 2 C0 1.34 0 0.68 0 0 Z " fill="#C2AE4E" transform="translate(15,64)"/>
<path d="M0 0 C2.375 -0.1875 2.375 -0.1875 5 0 C7 3 7 3 6.625 5.1875 C6.41875 5.785625 6.2125 6.38375 6 7 C5.38125 6.21625 4.7625 5.4325 4.125 4.625 C2.10141339 2.03162353 2.10141339 2.03162353 0 0 Z " fill="#444444" transform="translate(35,13)"/>
<path d="M0 0 C0.99 0.33 1.98 0.66 3 1 C2.34 3.31 1.68 5.62 1 8 C0.01 8 -0.98 8 -2 8 C-1.34 5.36 -0.68 2.72 0 0 Z " fill="#303030" transform="translate(47,93)"/>
<path d="M0 0 C0.66 0.33 1.32 0.66 2 1 C2 1.66 2 2.32 2 3 C1.34 3 0.68 3 0 3 C0.33 3.99 0.66 4.98 1 6 C0.01 6.33 -0.98 6.66 -2 7 C-2.33 5.02 -2.66 3.04 -3 1 C-2.01 0.67 -1.02 0.34 0 0 Z " fill="#ECECEC" transform="translate(99,40)"/>
<path d="M0 0 C5.625 -0.25 5.625 -0.25 9 2 C8.67 2.99 8.34 3.98 8 5 C5.36 4.01 2.72 3.02 0 2 C0 1.34 0 0.68 0 0 Z " fill="#888888" transform="translate(13,37)"/>
<path d="M0 0 C-1.39332574 3.36720387 -2.9789286 4.9859524 -6 7 C-6 4 -6 4 -4.125 1.8125 C-2 0 -2 0 0 0 Z " fill="#5A5A59" transform="translate(23,17)"/>
<path d="M0 0 C0.66 0 1.32 0 2 0 C2.66 2.31 3.32 4.62 4 7 C3.01 7 2.02 7 1 7 C0.67 4.69 0.34 2.38 0 0 Z " fill="#232323" transform="translate(67,94)"/>
<path d="M0 0 C0.66 0.33 1.32 0.66 2 1 C1.34 2.98 0.68 4.96 0 7 C-0.99 7 -1.98 7 -3 7 C-2.01 4.69 -1.02 2.38 0 0 Z " fill="#4C4C4C" transform="translate(109,73)"/>
<path d="M0 0 C2.97 0.495 2.97 0.495 6 1 C6 1.66 6 2.32 6 3 C4.35 3.33 2.7 3.66 1 4 C0.67 2.68 0.34 1.36 0 0 Z " fill="#7C7C7D" transform="translate(43,72)"/>
<path d="M0 0 C0.625 1.8125 0.625 1.8125 1 4 C0.01 5.485 0.01 5.485 -1 7 C-1.66 6.01 -2.32 5.02 -3 4 C-2.67 3.01 -2.34 2.02 -2 1 C-1.34 0.67 -0.68 0.34 0 0 Z " fill="#FAFAFA" transform="translate(22,40)"/>
<path d="M0 0 C0.99 0.33 1.98 0.66 3 1 C1.02 3.97 1.02 3.97 -1 7 C-1.99 6.67 -2.98 6.34 -4 6 C-2.68 4.02 -1.36 2.04 0 0 Z " fill="#2D2D2D" transform="translate(87,17)"/>
</svg>
